# xmcd CD database file
#
# Track frame offsets:
#	150
#	20925
#	43305
#	59175
#	81292
#	101004
#	113737
#	127497
#	147610
#	166430
#	182612
#	199972
#	212975
#	230390
#	252140
#
# Disc length: 3419 seconds
#
# Revision: 5
# Processed by: cddbd v1.5.2PL0 Copyright (c) Steve Scherf et al.
# Submitted via: CDex 1.51
#
DISCID=f40d590f
DTITLE=Nanci Griffith With The London Symphony Orchestra - The Dust Bowl Symphony
DYEAR=1999
DGENRE=Country
TTITLE0=Trouble In The Fields
TTITLE1=The Wing And The Wheel
TTITLE2=These Days In An Open Book
TTITLE3=Love At The Five And Dime (Duet With Darius Rucker)
TTITLE4=It's A Hard Life Wherever You Go
TTITLE5=Late Night Grande Hotel
TTITLE6=Tell Me How
TTITLE7=Not My Way Home
TTITLE8=1937 Pre-War Kimball
TTITLE9=Waiting For Love
TTITLE10=Nobody's Angel
TTITLE11=Always Will
TTITLE12=Drops From The Faucet
TTITLE13=Dust Bowl Reprise
TTITLE14=Data Track
EXTD=YEAR: 1999
EXTT0=
EXTT1=
EXTT2=
EXTT3=
EXTT4=
EXTT5=
EXTT6=
EXTT7=
EXTT8=
EXTT9=
EXTT10=
EXTT11=
EXTT12=
EXTT13=
EXTT14=
PLAYORDER=
